<svg width="60" height="60" viewBox="0 0 60 60" fill="none" xmlns="http://www.w3.org/2000/svg">
<path fill-rule="evenodd" clip-rule="evenodd" d="M30.0002 53.6848C36.2815 53.6848 42.3055 51.1895 46.747 46.748C51.1886 42.3065 53.6838 36.2825 53.6838 30.0012C53.6838 23.7199 51.1886 17.6959 46.747 13.2543C42.3055 8.81281 36.2815 6.31758 30.0002 6.31758C23.7189 6.31758 17.6949 8.81281 13.2534 13.2543C8.81183 17.6959 6.3166 23.7199 6.3166 30.0012C6.3166 36.2825 8.81183 42.3065 13.2534 46.748C17.6949 51.1895 23.7189 53.6848 30.0002 53.6848ZM30.0002 60.0004C33.9397 60.0004 37.8407 59.2244 41.4804 57.7168C45.1201 56.2092 48.4272 53.9995 51.2128 51.2138C53.9985 48.4281 56.2083 45.121 57.7159 41.4814C59.2235 37.8417 59.9994 33.9407 59.9994 30.0012C59.9994 26.0616 59.2235 22.1606 57.7159 18.521C56.2083 14.8813 53.9985 11.5742 51.2128 8.78852C48.4272 6.00284 45.1201 3.79311 41.4804 2.28551C37.8407 0.777906 33.9397 0.00195307 30.0002 0.00195313C22.0439 0.00195324 14.4135 3.16258 8.78754 8.78852C3.1616 14.4145 0.000976562 22.0449 0.000976562 30.0012C0.000976562 37.9575 3.1616 45.5879 8.78754 51.2138C14.4135 56.8398 22.0439 60.0004 30.0002 60.0004Z" fill="#222831"/>
<path d="M25.2637 21.3184C25.2637 22.3652 24.8478 23.3692 24.1075 24.1095C23.3673 24.8498 22.3633 25.2656 21.3164 25.2656C20.2695 25.2656 19.2655 24.8498 18.5253 24.1095C17.785 23.3692 17.3691 22.3652 17.3691 21.3184C17.3691 20.2715 17.785 19.2675 18.5253 18.5272C19.2655 17.787 20.2695 17.3711 21.3164 17.3711C22.3633 17.3711 23.3673 17.787 24.1075 18.5272C24.8478 19.2675 25.2637 20.2715 25.2637 21.3184ZM42.6316 21.3184C42.6316 22.3652 42.2158 23.3692 41.4755 24.1095C40.7353 24.8498 39.7313 25.2656 38.6844 25.2656C37.6375 25.2656 36.6335 24.8498 35.8932 24.1095C35.153 23.3692 34.7371 22.3652 34.7371 21.3184C34.7371 20.2715 35.153 19.2675 35.8932 18.5272C36.6335 17.787 37.6375 17.3711 38.6844 17.3711C39.7313 17.3711 40.7353 17.787 41.4755 18.5272C42.2158 19.2675 42.6316 20.2715 42.6316 21.3184Z" fill="#222831"/>
<path fill-rule="evenodd" clip-rule="evenodd" d="M37.0131 44.6151C37.5273 45.2763 38.2831 45.7062 39.1143 45.8101C39.9455 45.9141 40.7839 45.6836 41.4451 45.1693C42.1063 44.6551 42.5361 43.8993 42.6401 43.0681C42.744 42.237 42.5135 41.3986 41.9993 40.7373L41.993 40.731L41.9866 40.7216L41.9772 40.7058L41.9456 40.671L41.693 40.371C41.5009 40.1643 41.2996 39.9662 41.0898 39.7774C40.417 39.1893 39.6772 38.6827 38.8857 38.2679C36.9215 37.2195 34.0416 36.3164 29.9996 36.3164C25.9576 36.3164 23.0777 37.2195 21.1135 38.2679C20.322 38.6827 19.5822 39.1893 18.9093 39.7774C18.6038 40.0562 18.3169 40.3547 18.0504 40.671L18.022 40.7058L18.0125 40.7216L18.0062 40.731H17.9999C17.9999 40.7373 17.9999 40.7373 20.5261 42.632L17.9999 40.7373C17.5034 41.3999 17.287 42.2309 17.3973 43.0514C17.5075 43.872 17.9356 44.6164 18.5893 45.1244C19.2431 45.6324 20.0702 45.8634 20.8925 45.7675C21.7149 45.6717 22.4667 45.2567 22.9861 44.612L23.1061 44.4983C23.264 44.3594 23.5797 44.1099 24.085 43.8383C25.0797 43.3078 26.9333 42.632 29.9996 42.632C33.0627 42.632 34.9195 43.3078 35.9142 43.8383C36.3133 44.0461 36.6829 44.3063 37.0131 44.612" fill="#222831"/>
</svg>
