<svg width="20" height="10" viewBox="0 0 20 10" fill="none" xmlns="http://www.w3.org/2000/svg">
<path d="M5.0385 9.53794C3.78283 9.53794 2.7125 9.09544 1.8275 8.21044C0.9425 7.3256 0.5 6.25544 0.5 4.99994C0.5 3.74444 0.9425 2.6741 1.8275 1.78894C2.7125 0.903604 3.78283 0.460938 5.0385 0.460938H8.05775C8.27025 0.460938 8.44833 0.532854 8.592 0.676688C8.73583 0.820521 8.80775 0.99877 8.80775 1.21144C8.80775 1.42394 8.73583 1.60202 8.592 1.74569C8.44833 1.88919 8.27025 1.96094 8.05775 1.96094H5.03725C4.19825 1.96094 3.48233 2.25744 2.8895 2.85044C2.2965 3.44344 2 4.15977 2 4.99944C2 5.8391 2.2965 6.55544 2.8895 7.14844C3.48233 7.74144 4.19825 8.03794 5.03725 8.03794H8.05775C8.27025 8.03794 8.44833 8.10985 8.592 8.25369C8.73583 8.39752 8.80775 8.57569 8.80775 8.78819C8.80775 9.00085 8.73583 9.17894 8.592 9.32244C8.44833 9.4661 8.27025 9.53794 8.05775 9.53794H5.0385ZM7 5.74944C6.7875 5.74944 6.60942 5.67752 6.46575 5.53369C6.32192 5.38985 6.25 5.21169 6.25 4.99919C6.25 4.78652 6.32192 4.60844 6.46575 4.46494C6.60942 4.32127 6.7875 4.24944 7 4.24944H13C13.2125 4.24944 13.3906 4.32135 13.5343 4.46519C13.6781 4.60902 13.75 4.78719 13.75 4.99969C13.75 5.21235 13.6781 5.39044 13.5343 5.53394C13.3906 5.6776 13.2125 5.74944 13 5.74944H7ZM11.9423 9.53794C11.7298 9.53794 11.5517 9.46602 11.408 9.32219C11.2642 9.17835 11.1923 9.0001 11.1923 8.78744C11.1923 8.57494 11.2642 8.39685 11.408 8.25319C11.5517 8.10969 11.7298 8.03794 11.9423 8.03794H14.9628C15.8018 8.03794 16.5177 7.74144 17.1105 7.14844C17.7035 6.55544 18 5.8391 18 4.99944C18 4.15977 17.7035 3.44344 17.1105 2.85044C16.5177 2.25744 15.8018 1.96094 14.9628 1.96094H11.9423C11.7298 1.96094 11.5517 1.88902 11.408 1.74519C11.2642 1.60135 11.1923 1.42319 11.1923 1.21069C11.1923 0.998021 11.2642 0.819937 11.408 0.676437C11.5517 0.532771 11.7298 0.460938 11.9423 0.460938H14.9615C16.2172 0.460938 17.2875 0.903437 18.1725 1.78844C19.0575 2.67327 19.5 3.74344 19.5 4.99894C19.5 6.25444 19.0575 7.32477 18.1725 8.20994C17.2875 9.09527 16.2172 9.53794 14.9615 9.53794H11.9423Z" fill="#0856CC"/>
</svg>
