<svg width="12" height="13" viewBox="0 0 12 13" fill="none" xmlns="http://www.w3.org/2000/svg">
<path d="M6 0.5C9.3138 0.5 12 3.1862 12 6.5C12 9.8138 9.3138 12.5 6 12.5C2.6862 12.5 0 9.8138 0 6.5C0 3.1862 2.6862 0.5 6 0.5ZM6 2.9C5.84087 2.9 5.68826 2.96321 5.57574 3.07574C5.46321 3.18826 5.4 3.34087 5.4 3.5V6.5C5.40003 6.65912 5.46327 6.8117 5.5758 6.9242L7.3758 8.7242C7.48896 8.8335 7.64052 8.89397 7.79784 8.8926C7.95516 8.89124 8.10565 8.82814 8.21689 8.71689C8.32814 8.60565 8.39124 8.45516 8.3926 8.29784C8.39397 8.14052 8.3335 7.98896 8.2242 7.8758L6.6 6.2516V3.5C6.6 3.34087 6.53679 3.18826 6.42426 3.07574C6.31174 2.96321 6.15913 2.9 6 2.9Z" fill="#222831"/>
</svg>
