<svg width="30" height="27" viewBox="0 0 30 27" fill="none" xmlns="http://www.w3.org/2000/svg">
<path d="M7.5 17.4138H22.5C22.925 17.4138 23.2812 17.2747 23.5688 16.9966C23.8563 16.7185 24 16.3738 24 15.9627C24 15.5515 23.8563 15.2068 23.5688 14.9287C23.2812 14.6506 22.925 14.5115 22.5 14.5115H7.5C7.075 14.5115 6.71875 14.6506 6.43125 14.9287C6.14375 15.2068 6 15.5515 6 15.9627C6 16.3738 6.14375 16.7185 6.43125 16.9966C6.71875 17.2747 7.075 17.4138 7.5 17.4138ZM7.5 13.0604H22.5C22.925 13.0604 23.2812 12.9213 23.5688 12.6431C23.8563 12.365 24 12.0204 24 11.6092C24 11.198 23.8563 10.8534 23.5688 10.5753C23.2812 10.2971 22.925 10.1581 22.5 10.1581H7.5C7.075 10.1581 6.71875 10.2971 6.43125 10.5753C6.14375 10.8534 6 11.198 6 11.6092C6 12.0204 6.14375 12.365 6.43125 12.6431C6.71875 12.9213 7.075 13.0604 7.5 13.0604ZM7.5 8.7069H22.5C22.925 8.7069 23.2812 8.56783 23.5688 8.28969C23.8563 8.01156 24 7.66691 24 7.25575C24 6.84459 23.8563 6.49994 23.5688 6.22181C23.2812 5.94367 22.925 5.8046 22.5 5.8046H7.5C7.075 5.8046 6.71875 5.94367 6.43125 6.22181C6.14375 6.49994 6 6.84459 6 7.25575C6 7.66691 6.14375 8.01156 6.43125 8.28969C6.71875 8.56783 7.075 8.7069 7.5 8.7069ZM3 23.2184C2.175 23.2184 1.46875 22.9342 0.88125 22.3659C0.29375 21.7975 0 21.1142 0 20.3161V2.9023C0 2.10417 0.29375 1.42092 0.88125 0.852551C1.46875 0.284184 2.175 0 3 0H27C27.825 0 28.5313 0.284184 29.1188 0.852551C29.7063 1.42092 30 2.10417 30 2.9023V25.504C30 26.157 29.6938 26.6105 29.0813 26.8644C28.4688 27.1184 27.925 27.0156 27.45 26.556L24 23.2184H3ZM25.275 20.3161L27 21.9486V2.9023H3V20.3161H25.275Z" fill="#1EE494"/>
</svg>
