<svg width="12" height="14" viewBox="0 0 12 14" fill="none" xmlns="http://www.w3.org/2000/svg">
<path d="M10.2426 1.69826C7.89945 -0.566086 4.10055 -0.566086 1.75745 1.69826C1.20114 2.23221 0.759086 2.87002 0.457279 3.57422C0.155473 4.27841 0 5.03477 0 5.79884C0 6.56291 0.155473 7.31927 0.457279 8.02346C0.759086 8.72766 1.20114 9.36547 1.75745 9.89942L5.99963 14L10.2426 9.89942C10.7989 9.36547 11.2409 8.72766 11.5427 8.02346C11.8445 7.31927 12 6.56291 12 5.79884C12 5.03477 11.8445 4.27841 11.5427 3.57422C11.2409 2.87002 10.7989 2.23221 10.2426 1.69826ZM5.99963 7.73676C5.4986 7.73676 5.02834 7.54518 4.67357 7.19738C4.32237 6.85162 4.12513 6.3831 4.12513 5.89463C4.12513 5.40616 4.32237 4.93764 4.67357 4.59188C5.02759 4.24408 5.4986 4.0525 5.99963 4.0525C6.50065 4.0525 6.97167 4.24408 7.32568 4.59188C7.67688 4.93764 7.87412 5.40616 7.87412 5.89463C7.87412 6.3831 7.67688 6.85162 7.32568 7.19738C6.97167 7.54518 6.50065 7.73676 5.99963 7.73676Z" fill="#222831"/>
</svg>
