<svg width="18" height="19" viewBox="0 0 18 19" fill="none" xmlns="http://www.w3.org/2000/svg">
<path d="M18 17.9993C18 18.2645 17.8946 18.5189 17.7071 18.7064C17.5196 18.894 17.2652 18.9993 17 18.9993H1C0.734784 18.9993 0.48043 18.894 0.292893 18.7064C0.105357 18.5189 2.4071e-07 18.2645 2.4071e-07 17.9993V7.48932C-0.000105484 7.33693 0.0346172 7.18654 0.101516 7.04962C0.168415 6.9127 0.26572 6.79289 0.386 6.69932L8.386 0.476319C8.56154 0.339764 8.7776 0.265625 9 0.265625C9.2224 0.265625 9.43846 0.339764 9.614 0.476319L17.614 6.69932C17.7343 6.79289 17.8316 6.9127 17.8985 7.04962C17.9654 7.18654 18.0001 7.33693 18 7.48932V17.9993Z" fill="white"/>
</svg>
